{"title":"Unstoppable.2010.BRRIP.720P.H264-ZEKTORM","uid":6129483,"size":2412098981,"categoryP":"video","categoryS":"hd___movies","magnet":"?xt=urn:btih:1f77cce64c74e57e7aec2bb39d96b72dddb2877f&amp;dn=Unstoppable.2010.BRRIP.720P.H264-ZEKTORM&amp;tr=udp%3A%2F%2Ftracker.openbittorrent.com%3A80&amp;tr=udp%3A%2F%2Fopen.demonii.com%3A1337&amp;tr=udp%3A%2F%2Ftracker.coppersurfer.tk%3A6969&amp;tr=udp%3A%2F%2Fexodus.desync.com%3A6969","seeders":0,"leechers":0,"uploader":"blowley","files":4,"time":1296068146,"description":"Title                            : Unstoppable\nYear                             : 2010\nGenre                            : Action | Drama | Thriller\niMDB URL                         : http://www.imdb.com/title/tt0477080/\n\nComplete name                    : Unstoppable.2010.BRRIP.720P.H264-ZEKTORM.mp4\nFormat                           : MPEG-4\nFormat profile                   : Base Media\nCodec ID                         : isom\nFile size                        : 2.25 GiB\nDuration                         : 1h 38mn\nOverall bit rate                 : 3267 Kbps\nSubtitles                        : English (Format: srt)\n\nVideo\nID                               : 1\nFormat                           : AVC\nFormat/Info                      : Advanced Video Codec\nFormat profile                   : &lt;a class=&quot;__cf_email__&quot; href=&quot;/cdn-cgi/l/email-protection&quot; data-cfemail=&quot;ca82a3ada28a86fee4fa&quot;&gt;[email&amp;#160;protected]&lt;/a&gt;&lt;script cf-hash='f9e31' type=&quot;text/javascript&quot;&gt;\n/* &lt;![CDATA[ */!function(){try{var t=&quot;currentScript&quot;in document?document.currentScript:function(){for(var t=document.getElementsByTagName(&quot;script&quot;),e=t.length;e--;)if(t[e].getAttribute(&quot;cf-hash&quot;))return t[e]}();if(t&amp;&amp;t.previousSibling){var e,r,n,i,c=t.previousSibling,a=c.getAttribute(&quot;data-cfemail&quot;);if(a){for(e=&quot;&quot;,r=parseInt(a.substr(0,2),16),n=2;a.length-n;n+=2)i=parseInt(a.substr(n,2),16)^r,e+=String.fromCharCode(i);e=document.createTextNode(e),c.parentNode.replaceChild(e,c)}}}catch(u){}}();/* ]]&gt; */&lt;/script&gt;\nFormat settings, CABAC           : Yes\nFormat settings, ReFrames        : 8 frames\nCodec ID                         : avc1\nCodec ID/Info                    : Advanced Video Coding\nDuration                         : 1h 38mn\nBit rate mode                    : Variable\nBit rate                         : 2838 Kbps\nMaximum bit rate                 : 14.0 Mbps\nWidth                            : 1280 pixels\nHeight                           : 528 pixels\nDisplay aspect ratio             : 2.424\nFrame rate mode                  : Constant\nFrame rate                       : 23.976 fps\nResolution                       : 24 bits\nColorimetry                      : 4:2:0\nScan type                        : Progressive\nBits/(Pixel*Frame)               : 0.175\nStream size                      : 1.95 GiB (87%)\nTitle                            : Video\nWriting library                  : x264\n\nAudio\nID                               : 2\nFormat                           : AAC\nFormat/Info                      : Advanced Audio Codec\nFormat version                   : Version 4\nFormat profile                   : LC\nFormat settings, SBR             : No\nCodec ID                         : 40\nDuration                         : 1h 38mn\nBit rate mode                    : Variable\nBit rate                         : 425 Kbps\nMaximum bit rate                 : 530 Kbps\nChannel(s)                       : 6 channels\nChannel positions                : Front: L C R, Rear: L R, LFE\nSampling rate                    : 48.0 KHz\nResolution                       : 16 bits\nStream size                      : 299 MiB (13%)\nLanguage                         : English\n\n\n\n\n &lt;a href=&quot;\nhttp://img340.imageshack.us/img340/6972/snapu1.png&quot; rel=&quot;nofollow&quot; target=&quot;_NEW&quot;&gt;\nhttp://img340.imageshack.us/img340/6972/snapu1.png&lt;/a&gt;\n &lt;a href=&quot;\nhttp://img407.imageshack.us/img407/2022/snapu2.png&quot; rel=&quot;nofollow&quot; target=&quot;_NEW&quot;&gt;\nhttp://img407.imageshack.us/img407/2022/snapu2.png&lt;/a&gt;\n &lt;a href=&quot;\nhttp://img830.imageshack.us/img830/3117/snapu3.png&quot; rel=&quot;nofollow&quot; target=&quot;_NEW&quot;&gt;\nhttp://img830.imageshack.us/img830/3117/snapu3.png&lt;/a&gt;\n &lt;a href=&quot;\nhttp://img696.imageshack.us/img696/8902/snapu4.png&quot; rel=&quot;nofollow&quot; target=&quot;_NEW&quot;&gt;\nhttp://img696.imageshack.us/img696/8902/snapu4.png&lt;/a&gt;\n &lt;a href=&quot;\nhttp://img806.imageshack.us/img806/3310/snapu5.png&quot; rel=&quot;nofollow&quot; target=&quot;_NEW&quot;&gt;\nhttp://img806.imageshack.us/img806/3310/snapu5.png&lt;/a&gt;\n","torrent":{"xt":"urn:btih:1f77cce64c74e57e7aec2bb39d96b72dddb2877f","amp;dn":"Unstoppable.2010.BRRIP.720P.H264-ZEKTORM","amp;tr":["udp%3A%2F%2Ftracker.openbittorrent.com%3A80","udp%3A%2F%2Fopen.demonii.com%3A1337","udp%3A%2F%2Ftracker.coppersurfer.tk%3A6969","udp%3A%2F%2Fexodus.desync.com%3A6969"],"infoHash":"1f77cce64c74e57e7aec2bb39d96b72dddb2877f","infoHashBuffer":{"type":"Buffer","data":[31,119,204,230,76,116,229,126,122,236,43,179,157,150,183,45,221,178,135,127]},"announce":[],"urlList":[]}}